HIERARCHY
ROOT Hips
{
    OFFSET   0.000000   0.000000   0.000000
    CHANNELS 6 Xposition Yposition Zposition Zrotation Xrotation Yrotation
    JOINT Chest
    {
        OFFSET   0.000000   8.007230   0.000000
        CHANNELS 3 Zrotation Xrotation Yrotation
        JOINT Chest2
        {
            OFFSET   0.000000  22.077100   0.000000
            CHANNELS 3 Zrotation Xrotation Yrotation
            JOINT Neck
            {
                OFFSET   0.000000  23.254800  -0.000021
                CHANNELS 3 Zrotation Xrotation Yrotation
                JOINT Head
                {
                    OFFSET   0.000000  14.370000   1.956610
                    CHANNELS 3 Zrotation Xrotation Yrotation
                    End Site
                    {
                        OFFSET   0.000000  19.566000   0.000000
                    }
                }
            }
            JOINT LeftCollar
            {
                OFFSET   3.911900  19.017000  -0.467063
                CHANNELS 3 Zrotation Xrotation Yrotation
                JOINT LeftShoulder
                {
                    OFFSET  10.383700   0.000000   0.000000
                    CHANNELS 3 Zrotation Xrotation Yrotation
                    JOINT LeftElbow
                    {
                        OFFSET  26.662100   0.001529   0.000325
                        CHANNELS 3 Zrotation Xrotation Yrotation
                        JOINT LeftWrist
                        {
                            OFFSET  28.869000  -0.000011  -0.000096
                            CHANNELS 3 Zrotation Xrotation Yrotation
                            JOINT LeftFinger0
                            {
                                OFFSET   2.044650  -2.323460   3.252850
                                CHANNELS 3 Zrotation Xrotation Yrotation
                                JOINT LeftFinger01
                                {
                                    OFFSET   3.088130   0.000000   0.000000
                                    CHANNELS 3 Zrotation Xrotation Yrotation
                                    JOINT LeftFinger02
                                    {
                                        OFFSET   2.639460   0.000000   0.000000
                                        CHANNELS 3 Zrotation Xrotation Yrotation
                                        End Site
                                        {
                                            OFFSET   2.582190   0.000000   0.000000
                                        }
                                    }
                                }
                            }
                            JOINT LeftFinger1
                            {
                                OFFSET   8.364480   0.000000   3.252850
                                CHANNELS 3 Zrotation Xrotation Yrotation
                                JOINT LeftFinger11
                                {
                                    OFFSET   4.646930   0.000000   0.000000
                                    CHANNELS 3 Zrotation Xrotation Yrotation
                                    JOINT LeftFinger12
                                    {
                                        OFFSET   2.323460   0.000000   0.000000
                                        CHANNELS 3 Zrotation Xrotation Yrotation
                                        End Site
                                        {
                                            OFFSET   2.273050   0.000000   0.000000
                                        }
                                    }
                                }
                            }
                            JOINT LeftFinger2
                            {
                                OFFSET   8.364480   0.000016   1.078090
                                CHANNELS 3 Zrotation Xrotation Yrotation
                                JOINT LeftFinger21
                                {
                                    OFFSET   5.111620   0.000000   0.000000
                                    CHANNELS 3 Zrotation Xrotation Yrotation
                                    JOINT LeftFinger22
                                    {
                                        OFFSET   2.788160   0.000017   0.000000
                                        CHANNELS 3 Zrotation Xrotation Yrotation
                                        End Site
                                        {
                                            OFFSET   2.727660   0.000000   0.000000
                                        }
                                    }
                                }
                            }
                            JOINT LeftFinger3
                            {
                                OFFSET   7.899780   0.000015  -1.078090
                                CHANNELS 3 Zrotation Xrotation Yrotation
                                JOINT LeftFinger31
                                {
                                    OFFSET   4.646920   0.000000   0.000000
                                    CHANNELS 3 Zrotation Xrotation Yrotation
                                    JOINT LeftFinger32
                                    {
                                        OFFSET   2.323470   0.000000   0.000000
                                        CHANNELS 3 Zrotation Xrotation Yrotation
                                        End Site
                                        {
                                            OFFSET   2.273050   0.000000   0.000000
                                        }
                                    }
                                }
                            }
                            JOINT LeftFinger4
                            {
                                OFFSET   7.435090   0.000000  -3.252850
                                CHANNELS 3 Zrotation Xrotation Yrotation
                                JOINT LeftFinger41
                                {
                                    OFFSET   3.717550   0.000000   0.000000
                                    CHANNELS 3 Zrotation Xrotation Yrotation
                                    JOINT LeftFinger42
                                    {
                                        OFFSET   1.858760   0.000000   0.000000
                                        CHANNELS 3 Zrotation Xrotation Yrotation
                                        End Site
                                        {
                                            OFFSET   1.818440   0.000000   0.000000
                                        }
                                    }
                                }
                            }
                        }
                    }
                }
            }
            JOINT RightCollar
            {
                OFFSET  -3.911900  19.017000  -0.467062
                CHANNELS 3 Zrotation Xrotation Yrotation
                JOINT RightShoulder
                {
                    OFFSET -10.383700   0.000015   0.000000
                    CHANNELS 3 Zrotation Xrotation Yrotation
                    JOINT RightElbow
                    {
                        OFFSET -26.662100   0.001341   0.000385
                        CHANNELS 3 Zrotation Xrotation Yrotation
                        JOINT RightWrist
                        {
                            OFFSET -28.869000   0.000025  -0.000080
                            CHANNELS 3 Zrotation Xrotation Yrotation
                            JOINT RightFinger0
                            {
                                OFFSET  -2.044650  -2.323490   3.252850
                                CHANNELS 3 Zrotation Xrotation Yrotation
                                JOINT RightFinger01
                                {
                                    OFFSET  -3.088130   0.000000   0.000000
                                    CHANNELS 3 Zrotation Xrotation Yrotation
                                    JOINT RightFinger02
                                    {
                                        OFFSET  -2.639460   0.000000   0.000000
                                        CHANNELS 3 Zrotation Xrotation Yrotation
                                        End Site
                                        {
                                            OFFSET  -2.582190   0.000000   0.000000
                                        }
                                    }
                                }
                            }
                            JOINT RightFinger1
                            {
                                OFFSET  -8.364480   0.000000   3.252850
                                CHANNELS 3 Zrotation Xrotation Yrotation
                                JOINT RightFinger11
                                {
                                    OFFSET  -4.646930   0.000000   0.000000
                                    CHANNELS 3 Zrotation Xrotation Yrotation
                                    JOINT RightFinger12
                                    {
                                        OFFSET  -2.323470   0.000000   0.000000
                                        CHANNELS 3 Zrotation Xrotation Yrotation
                                        End Site
                                        {
                                            OFFSET  -2.273050   0.000000   0.000000
                                        }
                                    }
                                }
                            }
                            JOINT RightFinger2
                            {
                                OFFSET  -8.364480   0.000000   1.078090
                                CHANNELS 3 Zrotation Xrotation Yrotation
                                JOINT RightFinger21
                                {
                                    OFFSET  -5.111610   0.000000   0.000000
                                    CHANNELS 3 Zrotation Xrotation Yrotation
                                    JOINT RightFinger22
                                    {
                                        OFFSET  -2.788160   0.000000   0.000000
                                        CHANNELS 3 Zrotation Xrotation Yrotation
                                        End Site
                                        {
                                            OFFSET  -2.727660   0.000000   0.000000
                                        }
                                    }
                                }
                            }
                            JOINT RightFinger3
                            {
                                OFFSET  -7.899780   0.000000  -1.078090
                                CHANNELS 3 Zrotation Xrotation Yrotation
                                JOINT RightFinger31
                                {
                                    OFFSET  -4.646920   0.000000   0.000000
                                    CHANNELS 3 Zrotation Xrotation Yrotation
                                    JOINT RightFinger32
                                    {
                                        OFFSET  -2.323470   0.000000   0.000000
                                        CHANNELS 3 Zrotation Xrotation Yrotation
                                        End Site
                                        {
                                            OFFSET  -2.273050   0.000000   0.000000
                                        }
                                    }
                                }
                            }
                            JOINT RightFinger4
                            {
                                OFFSET  -7.435090   0.000000  -3.252850
                                CHANNELS 3 Zrotation Xrotation Yrotation
                                JOINT RightFinger41
                                {
                                    OFFSET  -3.717550   0.000000   0.000000
                                    CHANNELS 3 Zrotation Xrotation Yrotation
                                    JOINT RightFinger42
                                    {
                                        OFFSET  -1.858770   0.000000   0.000000
                                        CHANNELS 3 Zrotation Xrotation Yrotation
                                        End Site
                                        {
                                            OFFSET  -1.818440   0.000000   0.000000
                                        }
                                    }
                                }
                            }
                        }
                    }
                }
            }
        }
    }
    JOINT LeftHip
    {
        OFFSET   9.783010   0.000000   0.000000
        CHANNELS 3 Zrotation Xrotation Yrotation
        JOINT LeftKnee
        {
            OFFSET   0.000070 -41.789100   0.000028
            CHANNELS 3 Zrotation Xrotation Yrotation
            JOINT LeftAnkle
            {
                OFFSET   0.000087 -41.133200  -0.000100
                CHANNELS 3 Zrotation Xrotation Yrotation
                JOINT LeftToe
                {
                    OFFSET   0.000000  -6.358960  14.674500
                    CHANNELS 3 Zrotation Xrotation Yrotation
                    End Site
                    {
                        OFFSET   0.000000   0.000000   3.913200
                    }
                }
            }
        }
    }
    JOINT RightHip
    {
        OFFSET  -9.783020   0.000000   0.000000
        CHANNELS 3 Zrotation Xrotation Yrotation
        JOINT RightKnee
        {
            OFFSET   0.000044 -41.789100  -0.000870
            CHANNELS 3 Zrotation Xrotation Yrotation
            JOINT RightAnkle
            {
                OFFSET  -0.000090 -41.133200  -0.000245
                CHANNELS 3 Zrotation Xrotation Yrotation
                JOINT RightToe
                {
                    OFFSET   0.000000  -6.358960  14.674500
                    CHANNELS 3 Zrotation Xrotation Yrotation
                    End Site
                    {
                        OFFSET   0.000000   0.000000   3.913200
                    }
                }
            }
        }
    }
}
MOTION
Frames: 4
Frame Time:   0.016667
 -1.185570  89.402800   1.202300  -3.107650  -6.105420  -8.849460  -0.036764   5.205710  -0.362045  -0.040586  10.411600  -0.725205   5.997400   2.296050  -0.241159   9.895170   4.503040  11.118700  -3.546320   3.158700   6.657390 -74.495600   8.896730  -2.461980  -0.508787   2.158440 -14.169300  11.777600  -5.350700  -1.770740  36.962400  29.760200 -45.450800 -34.619200  -0.001126  -0.000517 -12.445200  -0.000620   0.001434 -38.007800  -0.848120   1.091140 -31.103900   0.000220  -0.002312 -21.765100   0.003871   0.005924 -28.817400  -3.751860   6.776150 -43.559800  -0.002914  -0.006341 -29.010800  -0.002036  -0.007072 -29.187200  -4.670230   8.296020 -44.277400   0.000586   0.010688 -29.496300  -0.000752   0.001599 -39.993400  -6.148500   7.272580 -60.576600   0.010796  -0.010128 -40.344100   0.009613   0.000584   4.809410  -0.373052   4.066870  10.864800 -18.262300  31.976900 -31.386600 -12.622200  89.964100 -34.586500  22.223500  49.196000 -59.034400  54.333300 108.293000 -17.100600   0.000864   0.000254 -13.550300  -0.000742   0.008383  80.859900   4.551130   0.731779  66.181900  -0.008783  -0.004382  49.636400  -0.002983   0.006593  76.002200   0.010322  -0.001710  76.002200  -0.002897   0.001237  57.001700  -0.005779   0.002462  80.316600  -4.931060  -0.839467  80.352800   0.000384  -0.000319  60.264600   0.003968  -0.000311  85.122100  -9.970510  -0.845342 110.000000  -0.002310   0.002077  80.000000  -0.000499   0.002522   3.917420  11.102800   0.004767  -0.615168   0.307790  17.786100  -2.599070  -5.382940   2.442960  -0.000000   0.000000  -0.000000  -0.017807   8.855820  -5.095280   0.764314   0.933420 -10.294200   0.447458  -2.873950   5.596340  -0.000000   0.000000  -0.000000
 -1.184870  89.409000   1.204220  -3.101220  -6.097150  -8.825140  -0.031980   5.227720  -0.335420  -0.033346  10.455500  -0.672385   5.995170   2.252450  -0.236534   9.891510   4.417700  11.003500  -3.565700   3.103920   6.627900 -74.494700   8.953100  -2.505630  -0.528970   2.118270 -14.170300  11.767000  -5.368970  -1.773840  36.957700  29.744000 -45.442300 -34.615400  -0.001127  -0.000526 -12.441800  -0.000621   0.001312 -38.005100  -0.848153   1.090230 -31.101600   0.000226  -0.002195 -21.764300   0.003949   0.005997 -28.819800  -3.751910   6.776080 -43.563400  -0.002979  -0.006475 -29.013200  -0.002084  -0.007181 -29.185400  -4.669750   8.295240 -44.280300   0.000607   0.010798 -29.494700  -0.000735   0.001478 -40.005100  -6.148440   7.271390 -60.594000   0.010934  -0.010210 -40.355700   0.009723   0.000615   4.845880  -0.340518   4.086140  11.207900 -18.306800  31.789900 -31.698400 -12.714000  90.233100 -34.603000  22.210300  48.729600 -59.034300  54.333300 108.293000 -17.017700   0.000818   0.000237 -13.508900  -0.000684   0.008403  80.734700   4.519940   0.735620  66.079400  -0.008766  -0.004442  49.559600  -0.002946   0.006569  75.868800   0.010518  -0.001779  75.868800  -0.002896   0.001222  56.901600  -0.005900   0.002467  80.181900  -4.930070  -0.852328  80.218600   0.000340  -0.000283  60.164000   0.003962  -0.000275  84.939900  -9.970040  -0.878270 110.000000  -0.002249   0.002135  80.000000  -0.000482   0.002457   3.908590  11.097100   0.004296  -0.609317   0.307436  17.764600  -2.592970  -5.391170   2.445440  -0.000000   0.000000  -0.000000  -0.022868   8.855130  -5.096920   0.769029   0.925848 -10.313400   0.449009  -2.881660   5.590010   0.000000   0.000000   0.000000
 -1.182150  89.412300   1.207740  -3.092770  -6.076480  -8.796190  -0.022755   5.236230  -0.320431  -0.016066  10.472500  -0.642814   5.981840   2.216850  -0.232251   9.866690   4.348550  10.926200  -3.587570   3.072310   6.616920 -74.509200   8.984450  -2.529200  -0.550284   2.092040 -14.179400  11.750700  -5.379670  -1.781630  36.957300  29.737000 -45.441400 -34.610100  -0.001127  -0.000539 -12.437200  -0.000621   0.001188 -38.000300  -0.848384   1.089310 -31.097700   0.000233  -0.002065 -21.763400   0.004025   0.006071 -28.821000  -3.751960   6.775940 -43.565000  -0.003044  -0.006604 -29.014300  -0.002133  -0.007288 -29.182300  -4.669530   8.294820 -44.281600   0.000628   0.010904 -29.491600  -0.000721   0.001360 -40.012800  -6.148410   7.270710 -60.605700   0.011068  -0.010290 -40.363400   0.009831   0.000645   4.870670  -0.275510   4.104480  11.767400 -18.386100  31.734200 -31.889500 -12.906000  90.351400 -34.669800  22.224200  48.328300 -59.034300  54.333300 108.293000 -16.938700   0.000773   0.000216 -13.469400  -0.000628   0.008421  80.664300   4.502530   0.737476  66.021800  -0.008750  -0.004496  49.516400  -0.002912   0.006544  75.797500   0.010715  -0.001845  75.797500  -0.002895   0.001209  56.848200  -0.006021   0.002473  80.116200  -4.929260  -0.859013  80.153100   0.000295  -0.000249  60.114900   0.003958  -0.000239  84.851000  -9.969650  -0.894831 110.000000  -0.002188   0.002193  80.000000  -0.000466   0.002391   3.900750  11.081400   0.003377  -0.606111   0.304737  17.742000  -2.587210  -5.394870   2.447910   0.000000   0.000000   0.000000  -0.029469   8.850400  -5.098520   0.774915   0.917242 -10.329100   0.449994  -2.885240   5.580610   0.000000   0.000000   0.000000
 -1.173360  89.412200   1.214820  -3.077510  -6.046400  -8.754400  -0.008473   5.233510  -0.320981   0.012829  10.467000  -0.644267   5.948520   2.193880  -0.228475   9.809230   4.305820  10.903900  -3.613790   3.065610   6.616930 -74.539900   8.956790  -2.527770  -0.571308   2.105950 -14.211000  11.736800  -5.367520  -1.797350  36.973700  29.770400 -45.473100 -34.597900  -0.001130  -0.000542 -12.427300  -0.000619   0.001075 -37.994900  -0.849139   1.089760 -31.093400   0.000241  -0.001925 -21.762900   0.004102   0.006141 -28.821400  -3.752020   6.775720 -43.565600  -0.003109  -0.006729 -29.014700  -0.002182  -0.007395 -29.176600  -4.671060   8.298520 -44.274900   0.000647   0.011005 -29.486000  -0.000710   0.001247 -40.009900  -6.150530   7.273920 -60.601700   0.011197  -0.010366 -40.360800   0.009934   0.000675   4.888390  -0.198470   4.126590  12.525900 -18.612000  31.865000 -32.020000 -13.166900  90.269700 -34.776700  22.222900  47.977300 -59.034200  54.333300 108.293000 -16.870800   0.000735   0.000191 -13.435400  -0.000568   0.008425  80.725700   4.518300   0.734901  66.072100  -0.008722  -0.004544  49.554100  -0.002891   0.006524  75.857900   0.010914  -0.001902  75.857800  -0.002912   0.001205  56.893500  -0.006119   0.002475  80.202100  -4.928610  -0.852148  80.238700   0.000244  -0.000225  60.179100   0.003970  -0.000196  84.929000  -9.969370  -0.882003 110.000000  -0.002120   0.002252  80.000000  -0.000455   0.002320   3.893420  11.054900  -0.011602  -0.607935   0.299051  17.721900  -2.582450  -5.394590   2.447390   0.000000   0.000000   0.000000  -0.044450   8.832950  -5.116440   0.784609   0.903512 -10.345500   0.452740  -2.885230   5.575760   0.000000   0.000000   0.000000
